<svg xmlns="http://www.w3.org/2000/svg" xmlns:xlink="http://www.w3.org/1999/xlink" width="1000" zoomAndPan="magnify" viewBox="0 0 750 532.499984" height="710" preserveAspectRatio="xMidYMid meet" version="1.0"><defs><clipPath id="f61ef98256"><path d="M 0.351562 219 L 749.648438 219 L 749.648438 313 L 0.351562 313 Z M 0.351562 219 " clip-rule="nonzero"/></clipPath><clipPath id="085bd46997"><path d="M 0.351562 437 L 749.648438 437 L 749.648438 531.125 L 0.351562 531.125 Z M 0.351562 437 " clip-rule="nonzero"/></clipPath><clipPath id="97cceee51e"><path d="M 0.351562 0.625 L 749.648438 0.625 L 749.648438 95 L 0.351562 95 Z M 0.351562 0.625 " clip-rule="nonzero"/></clipPath></defs><g clip-path="url(#f61ef98256)"><path fill="#ffffff" d="M 702.816406 219.167969 L 47.183594 219.167969 C 21.320312 219.167969 0.355469 240.132812 0.355469 266 C 0.355469 291.863281 21.320312 312.828125 47.183594 312.828125 L 702.816406 312.828125 C 728.679688 312.828125 749.644531 291.863281 749.644531 266 C 749.644531 240.132812 728.679688 219.167969 702.816406 219.167969 Z M 702.816406 219.167969 " fill-opacity="1" fill-rule="nonzero"/></g><g clip-path="url(#085bd46997)"><path fill="#ffffff" d="M 702.816406 437.710938 L 47.183594 437.710938 C 21.320312 437.710938 0.355469 458.675781 0.355469 484.542969 C 0.355469 510.40625 21.320312 531.371094 47.183594 531.371094 L 702.816406 531.371094 C 728.679688 531.371094 749.644531 510.40625 749.644531 484.542969 C 749.644531 458.675781 728.679688 437.710938 702.816406 437.710938 Z M 702.816406 437.710938 " fill-opacity="1" fill-rule="nonzero"/></g><g clip-path="url(#97cceee51e)"><path fill="#ffffff" d="M 47.183594 94.285156 L 702.816406 94.285156 C 728.679688 94.285156 749.644531 73.320312 749.644531 47.457031 C 749.644531 21.589844 728.679688 0.625 702.816406 0.625 L 47.183594 0.625 C 21.320312 0.625 0.355469 21.589844 0.355469 47.457031 C 0.355469 73.320312 21.320312 94.285156 47.183594 94.285156 Z M 47.183594 94.285156 " fill-opacity="1" fill-rule="nonzero"/></g></svg>